<svg xmlns="http://www.w3.org/2000/svg" width="838" height="838" viewBox="0 0 838 838" version="1.1">
	<path d="M 241.150 274.512 C 230.342 276.900, 223.414 284.053, 220.579 295.752 C 219.174 301.550, 218.982 308.337, 219.222 343.949 L 219.500 385.398 223.417 377.471 C 232.408 359.277, 253.723 345, 271.894 345 L 276 345 276 337.545 L 276 330.089 314.250 329.750 C 342.096 329.503, 353.562 329.059, 356.405 328.116 C 358.623 327.380, 362.566 324.565, 365.532 321.599 C 369.771 317.359, 370.965 315.392, 371.877 311.139 C 374.554 298.656, 372.333 288.280, 365.526 281.474 C 357.632 273.580, 357.807 273.601, 299 273.339 C 257.821 273.155, 246.227 273.390, 241.150 274.512 M 633.387 276.442 C 623.534 282.926, 619.089 293.478, 621.052 305.732 C 622.652 315.725, 628.474 323.767, 637.143 327.955 C 641.135 329.884, 643.195 330, 673.438 330.008 C 691.072 330.012, 708.425 330.478, 712 331.044 C 728.789 333.701, 739.469 344.176, 744.581 363 C 747.106 372.295, 747.147 403.730, 744.647 412.820 C 740.653 427.344, 734.268 436.297, 724.304 441.346 C 716.961 445.067, 709.222 446.141, 692.203 445.804 L 676.907 445.500 676.703 396 L 676.500 346.500 664 345.829 C 643.394 344.723, 633.738 340.994, 624.366 330.526 L 618.971 324.500 619.235 402 C 619.489 476.147, 619.585 479.738, 621.466 485 C 623.958 491.975, 631.721 500.042, 637.616 501.784 C 643.858 503.628, 714.724 503.431, 726 501.538 C 769.602 494.218, 795.982 465.116, 802.995 416.599 C 803.480 413.244, 804.335 408.475, 804.895 406 C 806.193 400.260, 806.189 377.050, 804.888 370.500 C 804.341 367.750, 803.521 362.800, 803.065 359.500 C 801.149 345.628, 796.341 330.438, 790.268 319.066 C 785.862 310.816, 783.134 307.123, 775.547 299.133 C 763.922 286.892, 751.603 280.282, 731.957 275.744 C 723.145 273.709, 719.635 273.543, 680.500 273.318 L 638.500 273.077 633.387 276.442 M 55.479 275.064 C 46.805 276.207, 40.206 280.592, 36.698 287.544 C 32.338 296.183, 32 300.619, 32 349.166 C 32 391.041, 32.178 396.184, 33.830 402.144 C 37.097 413.926, 43.988 422.954, 53.780 428.284 C 59.744 431.530, 71.830 434, 81.750 434 L 89 434 89 365.975 C 89 300.964, 88.913 297.703, 87.039 292.370 C 84.330 284.663, 80.924 280.584, 74.758 277.667 C 68.874 274.883, 62.938 274.081, 55.479 275.064 M 412.252 297.972 C 407.087 300.316, 398.909 308.297, 396.171 313.665 C 395.065 315.834, 393.599 320.319, 392.915 323.632 C 390.473 335.457, 395.149 347.098, 412.673 372.816 C 453.995 433.459, 457.190 438.733, 462.753 455.500 C 467.294 469.184, 469.001 478.359, 470.329 496.206 L 471.541 512.500 477.070 504 C 480.110 499.325, 484.592 492.238, 487.029 488.250 C 489.466 484.262, 491.694 481.017, 491.980 481.038 C 492.266 481.058, 497.875 489.496, 504.444 499.788 C 534.791 547.333, 539.026 552.852, 551 560.456 L 556.500 563.949 682.882 563.974 L 809.263 564 813.632 559.632 L 818 555.263 817.993 536.882 C 817.986 516.673, 817.555 514.983, 811.359 510.898 C 808.602 509.080, 804.557 509.013, 697.725 509.007 L 586.951 509 584.225 504.403 C 582.726 501.875, 576.157 491.413, 569.626 481.153 C 563.095 470.894, 555.255 458.450, 552.203 453.500 C 549.152 448.550, 544.295 440.850, 541.412 436.388 C 524.093 409.595, 516.025 380.901, 517.197 350.271 C 517.435 344.072, 517.375 339.017, 517.064 339.037 C 516.754 339.058, 511.102 347.158, 504.505 357.037 C 497.908 366.917, 492.260 375, 491.954 375 C 491.648 375, 488.132 370.163, 484.140 364.250 C 480.148 358.337, 473.643 348.775, 469.684 343 C 465.726 337.225, 459.115 327.561, 454.993 321.524 C 446.083 308.473, 439.361 301.543, 432.523 298.359 C 426.214 295.421, 418.209 295.268, 412.252 297.972 M 551.500 298.396 C 541.058 303.358, 529.839 319.068, 526.566 333.312 C 523.135 348.239, 526.199 369.715, 535.295 394.500 C 538.055 402.020, 542.976 412, 543.924 412 C 545.435 412, 580.958 359.348, 585.611 350.212 C 593.264 335.184, 593.543 322.443, 586.461 311.372 C 577.845 297.902, 563.636 292.628, 551.500 298.396 M 263.500 359.987 C 242.554 363.298, 225.965 379.729, 220.563 402.514 C 219.142 408.510, 218.949 414.533, 219.233 444.014 C 219.619 484.035, 219.928 485.834, 227.807 493.973 C 235.801 502.231, 234.838 502.126, 299.643 501.790 C 354.004 501.508, 355.620 501.444, 360 499.397 C 369.839 494.798, 373.997 487.457, 374.005 474.667 C 374.011 463.979, 371.856 457.923, 366.306 453.038 C 358.632 446.283, 356.523 446, 313.885 446 L 276 446 276 430 L 276 414 309.818 414 C 347.791 414, 350.581 413.618, 357.811 407.430 C 363.909 402.210, 366.323 396.325, 366.398 386.500 C 366.492 374.053, 361.929 366.672, 351 361.592 C 346.696 359.591, 344.799 359.493, 307.500 359.348 C 286.050 359.265, 266.250 359.552, 263.500 359.987 M 32.036 446.250 C 32.074 475.431, 32.765 481.229, 37.149 489.155 C 40.347 494.938, 46.731 499.595, 53.341 500.967 C 57.020 501.731, 75.305 501.992, 111.112 501.792 L 163.500 501.500 168 499.157 C 178.278 493.807, 181.343 488.065, 181.432 474 C 181.487 465.271, 181.250 464.063, 178.510 459.108 C 176.828 456.067, 173.928 452.657, 171.861 451.289 C 164.323 446.301, 161.457 446, 121.472 446 C 74.888 446, 65.747 444.702, 50.335 435.900 C 45.416 433.091, 34 421.939, 34 419.943 C 34 419.424, 33.550 419, 33 419 C 32.357 419, 32.013 428.726, 32.036 446.250 M 432.596 452.250 C 421.722 468.799, 406.262 493.460, 401.587 501.716 L 397.500 508.932 213.500 508.972 C 34.967 509.012, 29.415 509.069, 26.641 510.898 C 20.445 514.983, 20.014 516.673, 20.007 536.882 L 20 555.263 24.368 559.632 L 28.737 564 225.618 563.999 C 421.668 563.999, 422.523 563.990, 427.893 561.949 C 445.636 555.206, 458.114 537.802, 461.544 515.013 C 462.791 506.732, 462.785 504.272, 461.496 495.655 C 459.726 483.813, 457.051 474.425, 452.192 463 C 448.752 454.910, 441.301 441, 440.407 441 C 440.177 441, 436.661 446.063, 432.596 452.250" stroke="none" fill="black" fill-rule="evenodd"/>
</svg>